<svg id="Livello_1" data-name="Livello 1" xmlns="http://www.w3.org/2000/svg" xmlns:xlink="http://www.w3.org/1999/xlink" viewBox="0 0 491 563.5"><defs><style>.cls-1,.cls-3{stroke:#000;}.cls-1,.cls-2,.cls-3{stroke-miterlimit:10;}.cls-2{fill:#fff;stroke:url(#Sfumatura_senza_nome_20);}.cls-3{fill:none;}.cls-4{font-size:160.32px;}.cls-4,.cls-6{font-family:FranklinGothic-Medium, Franklin Gothic Medium;font-weight:500;}.cls-5{fill:url(#Sfumatura_senza_nome);}.cls-6{font-size:484.05px;}</style><radialGradient id="Sfumatura_senza_nome_20" cx="244.03" cy="245.03" r="225.52" gradientUnits="userSpaceOnUse"><stop offset="0" stop-color="#0017ff"/><stop offset="0.06" stop-color="#0623fb"/><stop offset="0.24" stop-color="#1645ee"/><stop offset="0.42" stop-color="#2260e4"/><stop offset="0.61" stop-color="#2b73dd"/><stop offset="0.8" stop-color="#307ed9"/><stop offset="1" stop-color="#3282d8"/></radialGradient><linearGradient id="Sfumatura_senza_nome" x1="-84.71" y1="342.22" x2="323.25" y2="342.22" gradientUnits="userSpaceOnUse"><stop offset="0" stop-color="#fff"/><stop offset="1"/></linearGradient></defs><circle class="cls-1" cx="245.5" cy="245.5" r="245"/><circle class="cls-2" cx="244.03" cy="245.03" r="225.02"/><path class="cls-3" d="M90.25,396.72" transform="translate(-54.75 -54.72)"/><path class="cls-3" d="M528.75,299.72" transform="translate(-54.75 -54.72)"/><path class="cls-3" d="M68.75,299.72" transform="translate(-54.75 -54.72)"/><line class="cls-3" x1="298" y1="384" x2="299" y2="384"/><text class="cls-4" transform="translate(256.34 82.88) rotate(90) scale(0.79 1)">BIELLI</text><path class="cls-5" d="M255.47,341.93H197.11q-32.87,0-54.26-27.42T121.46,242.9q0-38.76,19.77-67.25t60.67-28.48h95.67V469.79h-42.1Zm0-146.54h-46q-24.81,0-34.31,14.18t-9.5,34q0,22,10.27,35.21t29.78,13.24h49.8Z" transform="translate(-54.75 -54.72)"/><text class="cls-6" transform="matrix(-0.72, 0, 0, 1, 268.5, 415.07)">P</text></svg>